<?xml version="1.0" standalone="no"?>
<!DOCTYPE svg PUBLIC "-//W3C//DTD SVG 20010904//EN"
 "http://www.w3.org/TR/2001/REC-SVG-20010904/DTD/svg10.dtd">
<svg version="1.0" xmlns="http://www.w3.org/2000/svg"
 width="1080.000000pt" height="1080.000000pt" viewBox="0 0 1080.000000 1080.000000"
 preserveAspectRatio="xMidYMid meet">

<g transform="translate(0.000000,1080.000000) scale(0.100000,-0.100000)"
fill="#000000" stroke="none">
<path d="M827 9973 c-12 -11 -8 -7048 3 -7164 92 -925 748 -1694 1638 -1919
279 -70 -78 -64 3902 -67 3369 -3 3586 -2 3598 14 16 22 18 6795 2 7048 -13
199 -32 324 -75 480 -79 287 -218 561 -405 795 -85 107 -280 297 -383 374
-279 208 -602 350 -941 414 l-141 26 -3596 3 c-1977 2 -3598 0 -3602 -4z
m7313 -81 c540 -105 997 -379 1319 -789 183 -234 338 -562 401 -850 51 -234
49 -72 50 -3851 l0 -3522 -3532 3 c-2750 2 -3551 6 -3613 16 -235 36 -394 79
-577 155 -722 301 -1221 980 -1298 1765 -6 67 -10 1323 -10 3602 l0 3499 3573
-3 3572 -3 115 -22z"/>
<path d="M1600 7822 c0 -15 21 -22 136 -45 224 -45 354 -119 408 -236 l21 -46
0 -2215 0 -2215 -34 -69 c-67 -136 -211 -247 -446 -342 -62 -25 -81 -37 -83
-54 l-4 -21 1309 4 c1143 4 1324 6 1433 21 398 52 631 117 915 256 162 79 316
178 433 279 l82 71 0 -88 c0 -112 -18 -167 -77 -233 -79 -87 -189 -151 -410
-239 -63 -25 -83 -37 -83 -51 0 -19 48 -19 1827 -19 l1827 0 124 -80 c69 -45
125 -80 126 -78 5 7 49 179 221 858 119 467 181 728 175 734 -14 14 -25 0
-110 -139 -515 -842 -889 -1116 -1590 -1166 -83 -5 -401 -9 -740 -7 l-595 3 0
2395 0 2395 27 51 c71 135 242 211 561 249 47 5 57 10 57 26 0 19 -19 19 -955
19 -933 0 -955 0 -955 -19 0 -16 12 -21 73 -31 292 -47 445 -138 487 -290 11
-37 15 -2200 4 -2200 -3 0 -24 13 -47 29 -172 118 -502 230 -817 277 -96 15
-110 19 -90 28 241 99 409 206 574 365 244 236 370 504 370 786 -2 576 -483
913 -1459 1020 -274 29 -522 35 -1602 35 -1049 0 -1093 -1 -1093 -18z m2316
-112 c345 -28 603 -122 803 -291 100 -85 168 -176 236 -314 82 -166 119 -327
131 -567 20 -407 -95 -690 -328 -807 -173 -86 -262 -93 -1193 -89 l-700 3 -3
1038 -2 1037 464 0 c254 0 521 -5 592 -10z m289 -2200 c545 -40 902 -194 1117
-484 181 -243 264 -612 244 -1086 -33 -803 -325 -1128 -1081 -1201 -150 -14
-506 -14 -700 0 -289 22 -689 84 -872 137 l-53 15 0 1315 0 1314 603 0 c331 0
665 -5 742 -10z"/>
</g>
</svg>
